<svg width="97" height="97" viewBox="0 0 97 97" fill="none" xmlns="http://www.w3.org/2000/svg">
<path fill-rule="evenodd" clip-rule="evenodd" d="M97 48.5C97 75.2858 75.2858 97 48.5 97C21.7142 97 0 75.2858 0 48.5C0 21.7142 21.7142 0 48.5 0C75.2858 0 97 21.7142 97 48.5ZM52.5638 35.9399C52.5583 33.41 51.5905 30.9771 49.8569 29.1348C48.1232 27.2924 45.7536 26.1787 43.2289 26.0197C40.7042 25.8607 38.2136 26.6682 36.2625 28.2785C34.3114 29.8887 33.046 32.181 32.7231 34.6901C32.6567 35.3929 32.8664 36.0939 33.3078 36.6447C33.7492 37.1955 34.3877 37.5529 35.088 37.6411C35.7883 37.7294 36.4954 37.5417 37.0597 37.1176C37.624 36.6936 38.0011 36.0666 38.1111 35.3693C38.2207 34.5066 38.5765 33.6937 39.1358 33.0277C39.6951 32.3618 40.4343 31.8711 41.2651 31.6141C42.0959 31.3572 42.9832 31.3449 43.8207 31.5789C44.6583 31.8128 45.4108 32.283 45.9883 32.9332C46.5657 33.5835 46.9437 34.3863 47.0771 35.2457C47.2104 36.1051 47.0935 36.9847 46.7402 37.7794C46.387 38.574 45.8123 39.2502 45.085 39.7269C44.3577 40.2037 43.5085 40.4609 42.6389 40.4679H22.7167C21.9962 40.4679 21.3052 40.7541 20.7957 41.2636C20.2862 41.7731 20 42.4641 20 43.1847C20 43.9052 20.2862 44.5962 20.7957 45.1057C21.3052 45.6152 21.9962 45.9015 22.7167 45.9015H42.6389C45.2745 45.8919 47.7989 44.8381 49.6591 42.971C51.5194 41.1039 52.5639 38.5756 52.5638 35.9399ZM59.562 39.3353C61.3808 37.7314 63.7222 36.8461 66.1472 36.8454H66.1925C68.8343 36.8454 71.368 37.895 73.236 39.7631C75.1041 41.6313 76.1536 44.1651 76.1536 46.807C76.1536 49.449 75.1041 51.9828 73.236 53.851C71.368 55.7191 68.8343 56.7687 66.1925 56.7687H62.3801C63.1017 58.1688 63.4774 59.7215 63.4758 61.2967C63.468 63.8257 62.4986 66.2572 60.7642 68.0978C59.0299 69.9384 56.6604 71.0504 54.1364 71.2082C51.6123 71.3661 49.1228 70.5579 47.1726 68.9477C45.2225 67.3375 43.9578 65.0457 43.635 62.5373C43.5687 61.8346 43.7784 61.1336 44.2198 60.5828C44.6612 60.032 45.2996 59.6746 45.9999 59.5863C46.7002 59.498 47.4074 59.6858 47.9717 60.1098C48.5359 60.5339 48.913 61.1609 49.0231 61.8581C49.131 62.7215 49.4854 63.5355 50.0438 64.2028C50.6023 64.87 51.3411 65.3622 52.172 65.6205C53.0028 65.8787 53.8905 65.8921 54.7287 65.6591C55.567 65.426 56.3204 64.9563 56.8987 64.3063C57.477 63.6562 57.8558 62.8533 57.9897 61.9935C58.1237 61.1338 58.0071 60.2537 57.6539 59.4585C57.3007 58.6633 56.7259 57.9867 55.9982 57.5097C55.2706 57.0326 54.4209 56.7754 53.5509 56.7687H33.6287C32.9081 56.7687 32.2172 56.4824 31.7077 55.9729C31.1982 55.4634 30.912 54.7724 30.912 54.0519C30.912 53.3313 31.1982 52.6403 31.7077 52.1308C32.2172 51.6213 32.9081 51.3351 33.6287 51.3351H66.2287C67.0983 51.3281 67.9475 51.0709 68.6748 50.5941C69.4021 50.1174 69.9767 49.4412 70.3299 48.6465C70.6832 47.8519 70.8001 46.9723 70.6668 46.1129C70.5335 45.2535 70.1555 44.4507 69.578 43.8004C69.0005 43.1502 68.2481 42.68 67.4105 42.4461C66.5729 42.2121 65.6857 42.2244 64.8549 42.4813C64.0241 42.7382 63.2848 43.229 62.7255 43.8949C62.1662 44.5609 61.8105 45.3738 61.7009 46.2365C61.6108 46.9571 61.2382 47.6123 60.6651 48.0581C60.0919 48.5039 59.3651 48.7038 58.6446 48.6137C57.9241 48.5237 57.2689 48.151 56.8231 47.5779C56.3773 47.0047 56.1775 46.2779 56.2676 45.5573C56.5718 43.1514 57.7431 40.9391 59.562 39.3353Z" fill="black"/>
</svg>
